<svg width="24" height="24" viewBox="0 0 24 24" fill="none" xmlns="http://www.w3.org/2000/svg">
<path d="M11.7529 21.1317C9.25293 21.1317 7.12793 20.2567 5.37793 18.5067C3.62793 16.7567 2.75293 14.6317 2.75293 12.1317C2.75293 9.63171 3.62793 7.50671 5.37793 5.75671C7.12793 4.00671 9.25293 3.13171 11.7529 3.13171C11.9863 3.13171 12.2154 3.14005 12.4404 3.15671C12.6654 3.17338 12.8863 3.19838 13.1029 3.23171C12.4196 3.71505 11.8738 4.34421 11.4654 5.11921C11.0571 5.89421 10.8529 6.73171 10.8529 7.63171C10.8529 9.13171 11.3779 10.4067 12.4279 11.4567C13.4779 12.5067 14.7529 13.0317 16.2529 13.0317C17.1696 13.0317 18.0113 12.8275 18.7779 12.4192C19.5446 12.0109 20.1696 11.465 20.6529 10.7817C20.6863 10.9984 20.7113 11.2192 20.7279 11.4442C20.7446 11.6692 20.7529 11.8984 20.7529 12.1317C20.7529 14.6317 19.8779 16.7567 18.1279 18.5067C16.3779 20.2567 14.2529 21.1317 11.7529 21.1317ZM11.7529 19.1317C13.2196 19.1317 14.5363 18.7275 15.7029 17.9192C16.8696 17.1109 17.7196 16.0567 18.2529 14.7567C17.9196 14.84 17.5863 14.9067 17.2529 14.9567C16.9196 15.0067 16.5863 15.0317 16.2529 15.0317C14.2029 15.0317 12.4571 14.3109 11.0154 12.8692C9.57376 11.4275 8.85293 9.68171 8.85293 7.63171C8.85293 7.29838 8.87793 6.96505 8.92793 6.63171C8.97793 6.29838 9.0446 5.96505 9.12793 5.63171C7.82793 6.16505 6.77376 7.01505 5.96543 8.18171C5.1571 9.34838 4.75293 10.665 4.75293 12.1317C4.75293 14.065 5.43626 15.715 6.80293 17.0817C8.1696 18.4484 9.8196 19.1317 11.7529 19.1317Z" fill="#8F9398"/>
</svg>
