<svg width="16" height="16" viewBox="0 0 16 16" fill="none" xmlns="http://www.w3.org/2000/svg">
<path d="M12.9362 14.0878L8.73622 9.8878C8.40289 10.1545 8.01955 10.3656 7.58622 10.5211C7.15289 10.6767 6.69178 10.7545 6.20289 10.7545C4.99178 10.7545 3.96678 10.335 3.12789 9.49613C2.289 8.65724 1.86955 7.63224 1.86955 6.42113C1.86955 5.21002 2.289 4.18502 3.12789 3.34613C3.96678 2.50724 4.99178 2.0878 6.20289 2.0878C7.414 2.0878 8.439 2.50724 9.27789 3.34613C10.1168 4.18502 10.5362 5.21002 10.5362 6.42113C10.5362 6.91002 10.4584 7.37113 10.3029 7.80447C10.1473 8.2378 9.93622 8.62113 9.66955 8.95447L13.8696 13.1545L12.9362 14.0878ZM6.20289 9.42113C7.03622 9.42113 7.74455 9.12947 8.32789 8.54613C8.91122 7.9628 9.20289 7.25447 9.20289 6.42113C9.20289 5.5878 8.91122 4.87947 8.32789 4.29613C7.74455 3.7128 7.03622 3.42113 6.20289 3.42113C5.36955 3.42113 4.66122 3.7128 4.07789 4.29613C3.49455 4.87947 3.20289 5.5878 3.20289 6.42113C3.20289 7.25447 3.49455 7.9628 4.07789 8.54613C4.66122 9.12947 5.36955 9.42113 6.20289 9.42113Z" fill="#8F9398"/>
</svg>
